<svg width="24" height="24" viewBox="0 0 24 24" fill="none" xmlns="http://www.w3.org/2000/svg">
<path d="M12 6.60938C10.9338 6.60938 9.89161 6.92553 9.00513 7.51786C8.11865 8.11019 7.42772 8.95209 7.01971 9.9371C6.61171 10.9221 6.50496 12.006 6.71295 13.0517C6.92095 14.0973 7.43436 15.0579 8.18825 15.8117C8.94215 16.5656 9.90266 17.079 10.9483 17.287C11.994 17.495 13.0779 17.3883 14.0629 16.9803C15.0479 16.5723 15.8898 15.8814 16.4821 14.9949C17.0745 14.1084 17.3906 13.0662 17.3906 12C17.3906 10.5703 16.8227 9.19919 15.8117 8.18825C14.8008 7.17731 13.4297 6.60938 12 6.60938ZM12 15.9844C11.212 15.9844 10.4416 15.7507 9.7864 15.3129C9.13117 14.8751 8.62049 14.2528 8.31892 13.5248C8.01735 12.7967 7.93845 11.9956 8.09218 11.2227C8.24592 10.4498 8.6254 9.73985 9.18262 9.18262C9.73985 8.6254 10.4498 8.24592 11.2227 8.09218C11.9956 7.93845 12.7967 8.01735 13.5248 8.31892C14.2528 8.62049 14.8751 9.13117 15.3129 9.7864C15.7507 10.4416 15.9844 11.212 15.9844 12C15.9813 13.0558 15.5605 14.0674 14.814 14.814C14.0674 15.5605 13.0558 15.9813 12 15.9844ZM17.1562 0.515625H6.84375C5.16543 0.515625 3.55584 1.18234 2.36909 2.36909C1.18234 3.55584 0.515625 5.16543 0.515625 6.84375V17.1562C0.515625 18.8346 1.18234 20.4442 2.36909 21.6309C3.55584 22.8177 5.16543 23.4844 6.84375 23.4844H17.1562C18.8346 23.4844 20.4442 22.8177 21.6309 21.6309C22.8177 20.4442 23.4844 18.8346 23.4844 17.1562V6.84375C23.4844 5.16543 22.8177 3.55584 21.6309 2.36909C20.4442 1.18234 18.8346 0.515625 17.1562 0.515625ZM22.0781 17.1562C22.0781 18.4616 21.5596 19.7135 20.6365 20.6365C19.7135 21.5596 18.4616 22.0781 17.1562 22.0781H6.84375C5.53839 22.0781 4.28649 21.5596 3.36346 20.6365C2.44043 19.7135 1.92188 18.4616 1.92188 17.1562V6.84375C1.92188 5.53839 2.44043 4.28649 3.36346 3.36346C4.28649 2.44043 5.53839 1.92188 6.84375 1.92188H17.1562C18.4616 1.92188 19.7135 2.44043 20.6365 3.36346C21.5596 4.28649 22.0781 5.53839 22.0781 6.84375V17.1562ZM19.2656 5.90625C19.2656 6.13802 19.1969 6.36459 19.0681 6.55731C18.9394 6.75002 18.7563 6.90022 18.5422 6.98892C18.3281 7.07762 18.0925 7.10082 17.8651 7.05561C17.6378 7.01039 17.429 6.89878 17.2651 6.73489C17.1012 6.571 16.9896 6.36219 16.9444 6.13487C16.8992 5.90755 16.9224 5.67193 17.0111 5.45779C17.0998 5.24366 17.25 5.06064 17.4427 4.93187C17.6354 4.8031 17.862 4.73438 18.0938 4.73438C18.4046 4.73438 18.7026 4.85784 18.9224 5.07761C19.1422 5.29738 19.2656 5.59545 19.2656 5.90625Z" fill="black"/>
</svg>
