<svg width="100" height="100" viewBox="0 0 100 100" fill="none" xmlns="http://www.w3.org/2000/svg">
<rect width="100" height="100" fill="#A62B28"/>
<path d="M66.6667 42.0666C66.6679 41.8473 66.6259 41.6298 66.543 41.4268C66.46 41.2237 66.3378 41.039 66.1833 40.8833L59.1167 33.8166C58.9609 33.6621 58.7762 33.5399 58.5732 33.457C58.3701 33.3741 58.1527 33.332 57.9333 33.3333C57.714 33.332 57.4966 33.3741 57.2935 33.457C57.0904 33.5399 56.9057 33.6621 56.75 33.8166L52.0333 38.5333L33.8167 56.7499C33.6622 56.9057 33.54 57.0904 33.457 57.2934C33.3741 57.4965 33.3321 57.7139 33.3333 57.9333V64.9999C33.3333 65.442 33.5089 65.8659 33.8215 66.1785C34.134 66.491 34.558 66.6666 35 66.6666H42.0667C42.2999 66.6793 42.5332 66.6428 42.7514 66.5596C42.9696 66.4763 43.1679 66.3481 43.3333 66.1833L61.45 47.9666L66.1833 43.3333C66.3355 43.1717 66.4594 42.9858 66.55 42.7833C66.5661 42.6504 66.5661 42.5161 66.55 42.3833C66.5578 42.3057 66.5578 42.2275 66.55 42.1499L66.6667 42.0666ZM41.3833 63.3333H36.6667V58.6166L53.2167 42.0666L57.9333 46.7833L41.3833 63.3333ZM60.2833 44.4333L55.5667 39.7166L57.9333 37.3666L62.6333 42.0666L60.2833 44.4333Z" fill="white"/>
</svg>
