<svg width="26" height="18" viewBox="0 0 26 18" fill="none" xmlns="http://www.w3.org/2000/svg">
<path fill-rule="evenodd" clip-rule="evenodd" d="M10.4188 12.285V5.26L17.1725 8.785L10.4188 12.285ZM25.25 4.04375C25.25 4.04375 25.0062 2.32 24.2562 1.56125C23.3062 0.56625 22.24 0.56125 21.7512 0.5025C18.2537 0.25 13.005 0.25 13.005 0.25H12.995C12.995 0.25 7.7475 0.25 4.24875 0.5025C3.76 0.56125 2.695 0.565 1.74375 1.56125C0.99375 2.32 0.75 4.04375 0.75 4.04375C0.75 4.04375 0.5 6.06625 0.5 8.09V9.98625C0.5 12.0087 0.75 14.0325 0.75 14.0325C0.75 14.0325 0.99375 15.755 1.74375 16.5138C2.69375 17.51 3.94375 17.4775 4.5 17.5825C6.5 17.7737 13 17.8325 13 17.8325C13 17.8325 18.2537 17.825 21.7512 17.5725C22.24 17.5138 23.3062 17.51 24.2562 16.5138C25.0062 15.755 25.25 14.0325 25.25 14.0325C25.25 14.0325 25.5 12.0087 25.5 9.98625V8.09C25.5 6.06625 25.25 4.04375 25.25 4.04375Z" fill="black"/>
</svg>
